 
<svg width="25" height="24" viewBox="0 0 25 24" fill="none" xmlns="http://www.w3.org/2000/svg">
<path d="M20.5803 12.6604C20.421 12.4779 20.3332 12.2433 20.3332 12.0004C20.3332 11.7575 20.421 11.5229 20.5803 11.3404L21.8519 9.90038C21.9921 9.74305 22.0791 9.54509 22.1005 9.33489C22.1219 9.12469 22.0766 8.91307 21.9712 8.73038L19.9842 5.27038C19.8798 5.0879 19.7208 4.94326 19.53 4.85707C19.3391 4.77088 19.126 4.74754 18.9212 4.79038L17.0535 5.17038C16.8159 5.21981 16.5684 5.17997 16.358 5.05838C16.1475 4.93679 15.9885 4.74187 15.911 4.51038L15.305 2.68038C15.2384 2.48176 15.1114 2.30925 14.942 2.18723C14.7727 2.0652 14.5695 1.99984 14.3612 2.00038H10.3874C10.1707 1.989 9.95633 2.04931 9.77694 2.1721C9.59755 2.29489 9.46302 2.4734 9.3939 2.68038L8.83756 4.51038C8.76007 4.74187 8.60109 4.93679 8.39061 5.05838C8.18014 5.17997 7.93273 5.21981 7.69508 5.17038L5.77769 4.79038C5.58352 4.76276 5.38557 4.79361 5.20878 4.87902C5.03199 4.96444 4.88427 5.10061 4.78423 5.27038L2.7973 8.73038C2.68917 8.91103 2.64055 9.12147 2.65839 9.33161C2.67624 9.54174 2.75963 9.74082 2.89664 9.90038L4.15834 11.3404C4.31762 11.5229 4.40545 11.7575 4.40545 12.0004C4.40545 12.2433 4.31762 12.4779 4.15834 12.6604L2.89664 14.1004C2.75963 14.2599 2.67624 14.459 2.65839 14.6692C2.64055 14.8793 2.68917 15.0897 2.7973 15.2704L4.78423 18.7304C4.88864 18.9129 5.04761 19.0575 5.23849 19.1437C5.42937 19.2299 5.6424 19.2532 5.84723 19.2104L7.71495 18.8304C7.9526 18.781 8.20001 18.8208 8.41048 18.9424C8.62096 19.064 8.77994 19.2589 8.85743 19.4904L9.46344 21.3204C9.53257 21.5274 9.6671 21.7059 9.84649 21.8287C10.0259 21.9515 10.2403 22.0118 10.4569 22.0004H14.4308C14.639 22.0009 14.8422 21.9356 15.0116 21.8135C15.1809 21.6915 15.3079 21.519 15.3746 21.3204L15.9806 19.4904C16.0581 19.2589 16.217 19.064 16.4275 18.9424C16.638 18.8208 16.8854 18.781 17.123 18.8304L18.9908 19.2104C19.1956 19.2532 19.4086 19.2299 19.5995 19.1437C19.7904 19.0575 19.9494 18.9129 20.0538 18.7304L22.0407 15.2704C22.1462 15.0877 22.1915 14.8761 22.17 14.6659C22.1486 14.4557 22.0616 14.2577 21.9215 14.1004L20.5803 12.6604ZM19.1 14.0004L19.8948 14.9004L18.6232 17.1204L17.4509 16.8804C16.7354 16.7332 15.9911 16.8555 15.3592 17.2242C14.7274 17.5929 14.2521 18.1822 14.0234 18.8804L13.6459 20.0004H11.1027L10.745 18.8604C10.5164 18.1622 10.041 17.5729 9.4092 17.2042C8.77738 16.8355 8.03307 16.7132 7.31756 16.8604L6.14527 17.1004L4.85377 14.8904L5.64854 13.9904C6.13728 13.4404 6.40748 12.7283 6.40748 11.9904C6.40748 11.2525 6.13728 10.5404 5.64854 9.99038L4.85377 9.09038L6.1254 6.89038L7.29769 7.13038C8.0132 7.27761 8.75751 7.15526 9.38933 6.78658C10.0212 6.4179 10.4965 5.82854 10.7251 5.13038L11.1027 4.00038H13.6459L14.0234 5.14038C14.2521 5.83854 14.7274 6.4279 15.3592 6.79658C15.9911 7.16526 16.7354 7.28761 17.4509 7.14038L18.6232 6.90038L19.8948 9.12038L19.1 10.0204C18.6168 10.5691 18.3499 11.2771 18.3499 12.0104C18.3499 12.7437 18.6168 13.4516 19.1 14.0004ZM12.3743 8.00038C11.5883 8.00038 10.82 8.23498 10.1665 8.67451C9.51304 9.11403 9.0037 9.73874 8.70293 10.4696C8.40216 11.2006 8.32346 12.0048 8.47679 12.7807C8.63012 13.5567 9.0086 14.2694 9.56435 14.8288C10.1201 15.3882 10.8282 15.7692 11.599 15.9235C12.3699 16.0779 13.1689 15.9987 13.895 15.6959C14.6211 15.3932 15.2418 14.8805 15.6784 14.2227C16.1151 13.5649 16.3481 12.7915 16.3481 12.0004C16.3481 10.9395 15.9295 9.9221 15.1842 9.17196C14.439 8.42181 13.4282 8.00038 12.3743 8.00038ZM12.3743 14.0004C11.9813 14.0004 11.5972 13.8831 11.2704 13.6633C10.9437 13.4436 10.689 13.1312 10.5386 12.7657C10.3882 12.4003 10.3489 11.9982 10.4255 11.6102C10.5022 11.2222 10.6914 10.8659 10.9693 10.5862C11.2472 10.3065 11.6012 10.116 11.9867 10.0388C12.3721 9.96164 12.7716 10.0012 13.1347 10.1526C13.4977 10.304 13.808 10.5603 14.0264 10.8892C14.2447 11.2181 14.3612 11.6048 14.3612 12.0004C14.3612 12.5308 14.1519 13.0395 13.7793 13.4146C13.4066 13.7897 12.9013 14.0004 12.3743 14.0004Z" fill="#959596"/>
 
</svg>
